Coordinates
version=1
nRows=11
nColumns=36
inDegrees=yes

Units are S.I. units (second, meters, Newtons, ...)
If the header above contains a line with 'inDegrees', this indicates whether rotational values are in degrees (yes) or radians (no).

endheader
time	pelvis_tilt	pelvis_list	pelvis_rotation	pelvis_tx	pelvis_ty	pelvis_tz	hip_flexion_r	hip_adduction_r	hip_rotation_r	knee_angle_r	knee_angle_r_beta	ankle_angle_r	subtalar_angle_r	mtp_angle_r	hip_flexion_l	hip_adduction_l	hip_rotation_l	knee_angle_l	knee_angle_l_beta	ankle_angle_l	subtalar_angle_l	mtp_angle_l	lumbar_extension	lumbar_bending	lumbar_rotation	arm_flex_r	arm_add_r	arm_rot_r	elbow_flex_r	pro_sup_r	arm_flex_l	arm_add_l	arm_rot_l	elbow_flex_l	pro_sup_l
      4.98333330	     12.52737357	      5.68230049	      6.66319479	      0.44323984	      1.26773564	      0.19326323	    -25.79700144	      0.08313315	    -11.16488879	      8.11392442	      0.14161470	     -2.81356328	     -3.39488365	     -7.49999987	    -23.88553212	      2.17921121	     -2.92859271	     10.33689772	      0.18041290	    -17.61993372	    -16.23632874	     -7.49999987	    -31.40262379	     -2.63256617	      5.86017010	     14.58945431	     -5.57089563	      3.10311259	     45.11465389	    103.58070809	     17.44629850	    -19.01344211	     21.87824159	     81.84808297	     99.53767419
      5.00000000	     12.37932805	      5.76851424	      6.75493214	      0.45404774	      1.26955738	      0.19248148	    -23.92613357	     -0.60802783	    -12.84663260	     11.41890751	      0.19929753	     -3.02244877	     -3.90446660	     -7.49999987	    -21.92661488	      2.24664675	     -3.08814473	     12.71481398	      0.22191537	    -20.89440677	    -17.82947397	     -7.49999987	    -30.96130494	     -2.52046215	      5.97459755	     13.84756614	     -5.73382344	      3.03071599	     45.14798175	    104.48982735	     16.89292391	    -19.72383120	     21.35342134	     82.25933604	    100.87313232
      5.01666670	     12.34353423	      6.00204824	      6.90585464	      0.46470729	      1.27489076	      0.19183983	    -21.51025656	     -1.53350084	    -13.92201215	     15.33342062	      0.26761868	     -2.56762699	     -5.41243953	     -7.49999987	    -19.30287585	      2.52599086	     -3.11594109	     15.83089340	      0.27630121	    -23.83684802	    -19.49708890	     -7.49999987	    -30.97977364	     -2.46536369	      6.10458484	     13.14263435	     -5.99494398	      2.93674455	     45.03191582	    104.45618518	     16.51249742	    -20.22577615	     20.81779218	     82.08795057	    101.30173344
      5.03333330	     12.62449414	      5.96709680	      6.98009894	      0.47689499	      1.27186208	      0.18872327	    -18.82915815	     -2.24428608	    -14.37526669	     19.36808551	      0.33803686	     -2.21584717	     -8.90568122	     -7.49999987	    -17.16909085	      2.57938439	     -3.65886270	     18.09863029	      0.31588069	    -25.31187857	    -20.87641632	     -7.49999987	    -31.35887196	     -1.91598017	      6.39019310	     12.56399337	     -6.55294874	      3.05331854	     45.00856126	    103.53749984	     16.13496714	    -20.48884438	     20.29224483	     81.85236891	    100.44029218
      5.05000000	     12.92972771	      5.84397906	      7.17648352	      0.48734124	      1.27245821	      0.18824954	    -15.94989935	     -2.73877212	    -14.65737688	     22.49134709	      0.39254806	     -2.72503654	    -13.07368112	     -7.49999987	    -15.05280785	      2.55222381	     -3.95691285	     19.68045873	      0.34348880	    -25.93184664	    -21.79666482	     -7.49999987	    -31.84053817	     -1.26922190	      6.45270491	     12.11172425	     -7.01689799	      3.25131630	     44.50209655	    102.96915015	     15.84303030	    -20.52905036	     19.56694484	     81.16694574	    100.00843893
      5.06666670	     13.14134781	      5.71131906	      7.41987271	      0.49412086	      1.26688982	      0.18812137	    -12.55685251	     -3.07878311	    -14.49286111	     25.21020337	      0.44000105	     -4.51796865	    -18.46181600	     -7.49999987	    -12.69424310	      2.50658399	     -4.21328956	     20.83477212	      0.36363537	    -25.30718312	    -22.10086693	     -7.49999987	    -32.39256785	     -0.65144134	      6.35947991	     11.99078284	     -7.49580883	      3.65295979	     43.97063552	    102.55760068	     16.10597773	    -20.69890469	     18.81934487	     80.33088064	     99.72568544
      5.08333330	     13.25215791	      5.62569241	      7.68809138	      0.50370357	      1.25180443	      0.18343787	     -8.96247939	     -3.47292055	    -14.17468079	     27.10893538	      0.47314018	     -6.62016028	    -24.39846255	     -7.49999987	    -10.36483252	      2.61547384	     -4.77758817	     21.61967077	      0.37733444	    -22.94339566	    -21.61127682	     -7.49999987	    -32.83668731	      0.05278949	      6.22649893	     11.76812319	     -8.28926761	      4.20716095	     43.64747164	    102.73146736	     16.21661716	    -20.79988972	     17.83882017	     79.83161101	     99.98653965
      5.10000000	     13.16766029	      5.85242921	      7.96561211	      0.51341933	      1.23597510	      0.18173739	     -5.71920110	     -4.01601340	    -14.27806004	     27.36694980	      0.47764338	     -8.75639182	    -27.76176906	     -7.49999987	     -7.62079280	      2.95474483	     -5.46693043	     21.55865196	      0.37626946	    -22.76073721	    -21.50779911	     -7.49999987	    -33.17810077	      0.31456870	      6.01805540	     11.22485122	     -9.04331301	      4.58235638	     43.76495504	    102.90909443	     16.65814918	    -21.11544360	     17.41774625	     79.50247153	    100.28661124
      5.11666670	     13.37901498	      6.21309080	      8.20553207	      0.52587178	      1.22736292	      0.17825354	     -3.81259189	     -4.54251396	    -15.26593418	     25.56916097	      0.44626605	    -10.40104735	    -27.27080506	     -7.49999987	     -5.94283959	      3.48163240	     -6.01006760	     20.34805496	      0.35514056	    -23.12167354	    -20.26043560	     -7.49999987	    -33.61831730	      0.46397578	      5.71710260	     10.36262470	     -9.67588749	      4.61187313	     43.50373945	    102.63958940	     16.70844584	    -21.37227170	     17.19972652	     79.18485583	    100.06054512
      5.13333330	     13.28217716	      6.40415007	      8.67182754	      0.53774311	      1.21216743	      0.17708145	     -2.26883667	     -4.27600425	    -14.72540217	     22.72422482	      0.39661254	    -13.64128323	    -28.49316524	     -7.49999987	     -4.28667923	      3.62058594	     -6.43190130	     19.72564233	      0.34427741	    -20.78532870	    -17.39748966	     -7.49999987	    -33.58711774	      0.74241787	      5.45938231	      9.35510377	    -10.18914110	      4.91238040	     42.78577876	    102.80452241	     17.05025937	    -21.63311551	     17.20176852	     77.44270606	    100.51256014
      5.15000000	     13.37077591	      6.55198995	      8.85922320	      0.54971481	      1.18995273	      0.17714353	     -1.28500420	     -4.07787770	    -14.41916806	     20.29904846	      0.35428523	    -14.98427660	    -27.59508955	     -7.49999987	     -3.08440628	      3.85125992	     -5.70448493	     18.14468798	      0.31668455	    -19.15616261	    -15.53591573	     -7.49999987	    -33.87941796	      0.89488988	      5.35572023	      8.30631982	    -10.63527588	      5.08377266	     42.42082419	    102.68093263	     17.06453392	    -21.89811711	     16.95737292	     76.17807446	    100.53874546
